HIERARCHY
ROOT Hips
{
	OFFSET 0.000000 0.000000 0.000000 
	CHANNELS 6 Xposition Yposition Zposition Zrotation Yrotation Xrotation
	JOINT LeftUpLeg
	{
		OFFSET 1.363060 -1.794630 0.839290 
		CHANNELS 3 Zrotation Yrotation Xrotation
		JOINT LeftLeg
		{
			OFFSET 2.448110 -6.726130 0.000000 
			CHANNELS 3 Zrotation Yrotation Xrotation
			JOINT LeftFoot
			{
				OFFSET 2.562200 -7.039590 0.000000 
				CHANNELS 3 Zrotation Yrotation Xrotation
				JOINT LeftToeBase
				{
					OFFSET 0.157640 -0.433110 2.322550 
					CHANNELS 3 Zrotation Yrotation Xrotation
					End Site
					{
						OFFSET 0.000000 0.000000 0.000000 
					}
				}
			}
		}
	}
	JOINT RightUpLeg
	{
		OFFSET -1.305520 -1.794630 0.839290 
		CHANNELS 3 Zrotation Yrotation Xrotation
		JOINT RightLeg
		{
			OFFSET -2.542530 -6.985550 0.000000 
			CHANNELS 3 Zrotation Yrotation Xrotation
			JOINT RightFoot
			{
				OFFSET -2.568260 -7.056230 0.000000 
				CHANNELS 3 Zrotation Yrotation Xrotation
				JOINT RightToeBase
				{
					OFFSET -0.164730 -0.452590 2.363150 
					CHANNELS 3 Zrotation Yrotation Xrotation
					End Site
					{
						OFFSET 0.000000 0.000000 0.000000 
					}
				}
			}
		}
	}
	JOINT Spine
	{
		OFFSET 0.028270 2.035590 -0.193380 
		CHANNELS 3 Zrotation Yrotation Xrotation
		JOINT Spine1
		{
			OFFSET 0.056720 2.048850 -0.042750 
			CHANNELS 3 Zrotation Yrotation Xrotation
			JOINT Neck1
			{
				OFFSET -0.054170 1.746240 0.172020 
				CHANNELS 3 Zrotation Yrotation Xrotation
				JOINT Head
				{
					OFFSET 0.104070 1.761360 -0.123970 
					CHANNELS 3 Zrotation Yrotation Xrotation
					End Site
					{
						OFFSET 0.000000 0.000000 0.000000 
					}
				}
			}
			JOINT LeftArm
			{
				OFFSET 3.362410 1.200890 -0.311210 
				CHANNELS 3 Zrotation Yrotation Xrotation
				JOINT LeftForeArm
				{
					OFFSET 4.983000 -0.000000 -0.000000 
					CHANNELS 3 Zrotation Yrotation Xrotation
					JOINT LeftHand
					{
						OFFSET 3.483560 -0.000000 -0.000000 
						CHANNELS 3 Zrotation Yrotation Xrotation
						JOINT LeftHandIndex1
						{
							OFFSET 0.715260 -0.000000 -0.000000 
							CHANNELS 3 Zrotation Yrotation Xrotation
							End Site
							{
								OFFSET 0.000000 0.000000 0.000000 
							}
						}
					}
				}
			}
			JOINT RightArm
			{
				OFFSET -3.136600 1.374050 -0.404650 
				CHANNELS 3 Zrotation Yrotation Xrotation
				JOINT RightForeArm
				{
					OFFSET -5.241900 -0.000000 -0.000000 
					CHANNELS 3 Zrotation Yrotation Xrotation
					JOINT RightHand
					{
						OFFSET -3.444170 -0.000000 -0.000000 
						CHANNELS 3 Zrotation Yrotation Xrotation
						JOINT RightHandIndex1
						{
							OFFSET -0.622530 -0.000000 -0.000000 
							CHANNELS 3 Zrotation Yrotation Xrotation
							End Site
							{
								OFFSET 0.000000 0.000000 0.000000 
							}
						}
					}
				}
			}
		}
	}
}
MOTION
Frames: 13
Frame Time: 0.041667
8.586692 17.655972 -2.694684 4.029322 -42.660372 1.013193 -20.557159 -12.283739 -1.345542 -1.131556 7.504081 20.852037 -3.122503 13.570710 -8.307143 1.242800 -7.068700 -19.919100 14.738577 14.817937 -14.548791 -0.610845 -10.098568 24.691093 3.797516 -23.628850 -26.571426 -0.019900 0.911300 -2.504700 4.781724 1.934465 6.815490 1.241069 0.110357 9.736935 20.473408 -11.471484 2.082686 3.932900 -5.676300 1.480600 -94.913220 -10.645509 67.954322 76.781740 -61.596952 -67.654891 4.352245 -4.551045 -17.586405 -7.125000 0.000000 0.000000 86.272246 25.675076 43.909411 -43.009966 46.958819 -26.752562 -2.987409 3.204317 -78.506393 7.125000 0.000000 0.000000 
8.443473 17.668805 -2.787031 3.894633 -42.204994 1.148712 -20.198867 -12.999510 -1.361511 -1.107556 7.604682 21.079025 -3.368506 14.401250 -8.665375 1.010200 -6.395200 -17.935400 15.425251 13.305984 -15.055117 -0.711446 -10.218903 25.087858 4.049864 -23.876305 -24.916738 -0.084700 1.876800 -5.165400 4.836619 1.623002 6.794984 0.984462 -0.071576 9.643222 20.366702 -11.425985 2.031409 3.772000 -5.674400 1.388000 -96.726126 -14.551951 71.936291 70.127675 -58.137596 -61.832365 4.434136 -4.866911 -17.960734 -7.125000 0.000000 0.000000 84.713394 28.178109 40.844866 -39.328908 45.025914 -23.242686 -2.921997 3.304211 -78.287554 7.125000 0.000000 0.000000 
8.304838 17.684043 -2.879722 3.847080 -41.703041 1.242145 -19.969910 -13.549152 -1.527310 -1.076828 7.743666 21.370399 -3.643827 15.344660 -9.091803 0.783400 -5.650500 -15.773700 16.026889 12.140512 -15.474038 -0.795481 -10.341456 25.487732 4.151163 -23.920024 -24.035947 -0.138800 2.401100 -6.615600 4.890990 1.337211 6.786597 0.765667 -0.253697 9.591517 20.412703 -11.434176 1.979801 3.708800 -5.692800 1.333800 -98.615006 -18.518908 75.734622 64.102305 -54.817514 -55.764735 4.369871 -5.135487 -18.896758 -7.125000 0.000000 0.000000 82.966708 30.689258 37.533271 -35.785074 42.886558 -19.950974 -2.832010 3.422254 -77.620103 7.125000 0.000000 0.000000 
8.169983 17.699969 -2.970695 3.915542 -41.172303 1.273780 -19.900679 -13.888265 -1.838403 -1.041299 7.916537 21.715596 -3.949401 16.409886 -9.603693 0.585100 -4.897900 -13.617500 16.518513 11.379001 -15.775332 -0.864004 -10.464662 25.878846 4.184398 -23.957423 -23.799011 -0.162700 2.598500 -7.162800 4.943838 1.081027 6.787283 0.591099 -0.434199 9.599563 20.607738 -11.498490 1.944937 3.747400 -5.731300 1.318400 -100.597260 -22.484233 79.337397 58.446261 -51.679599 -49.587554 4.223740 -5.373371 -20.375271 -7.125000 0.000000 0.000000 81.008860 33.142839 33.989250 -32.467714 40.571230 -16.952354 -2.714250 3.548938 -76.483918 7.125000 0.000000 0.000000 
8.039483 17.714864 -3.058917 4.106573 -40.617840 1.228216 -20.010552 -14.016176 -2.283909 -1.001833 8.121428 22.111151 -4.268991 17.546819 -10.193006 0.429000 -4.203600 -11.650200 16.886384 10.914472 -15.978685 -0.922173 -10.585132 26.265010 4.159911 -23.965915 -24.070994 -0.149300 2.489600 -6.860800 4.995738 0.855911 6.794765 0.460327 -0.611804 9.661100 20.909715 -11.619692 1.933748 3.860700 -5.790600 1.338600 -102.702516 -26.378763 82.819849 53.109639 -48.706062 -43.538015 4.053035 -5.609993 -22.294023 -7.125000 0.000000 0.000000 78.824024 35.493069 30.147609 -29.440180 38.132684 -14.296442 -2.582415 3.668225 -74.888716 7.125000 0.000000 0.000000 
7.913336 17.728040 -3.142901 4.387420 -40.042245 1.107205 -20.283484 -13.942173 -2.839314 -0.955541 8.355495 22.561758 -4.564294 18.624948 -10.794316 0.322800 -3.652000 -10.099600 17.155336 10.609595 -16.103363 -0.976963 -10.702061 26.657113 4.081806 -23.904634 -24.669275 -0.111600 2.153600 -5.930200 5.052048 0.633976 6.808535 0.387280 -0.802888 9.761437 21.261309 -11.762737 1.945460 4.018400 -5.855700 1.381400 -104.955072 -30.118403 86.211924 48.113104 -45.832027 -37.826229 3.898012 -5.861309 -24.414616 -7.125000 0.000000 0.000000 76.430677 37.732007 26.046822 -26.734870 35.631169 -12.002961 -2.445758 3.771969 -72.917725 7.125000 0.000000 0.000000 
7.791314 17.739726 -3.222186 4.712907 -39.455639 0.940244 -20.683291 -13.706878 -3.488984 -0.899034 8.616256 23.073332 -4.778896 19.448893 -11.311107 0.257700 -3.266000 -9.020300 17.358006 10.355182 -16.190413 -1.034247 -10.818551 27.066669 3.955254 -23.740931 -25.419089 -0.069600 1.701500 -4.681300 5.115596 0.410771 6.827240 0.364326 -1.006221 9.884953 21.611665 -11.904833 1.952006 4.184300 -5.922000 1.418700 -107.363450 -33.656900 89.631286 43.519194 -42.987904 -32.605723 3.767302 -6.140304 -26.542654 -7.125000 0.000000 0.000000 73.869867 39.828241 21.758031 -24.363366 33.131186 -10.064641 -2.290622 3.857698 -70.889940 7.125000 0.000000 0.000000 
7.673302 17.749924 -3.296774 5.036311 -38.877960 0.770367 -21.165744 -13.358702 -4.225323 -0.830297 8.899038 23.640414 -4.866464 19.848713 -11.617809 0.227200 -3.068200 -8.468700 17.532165 10.084060 -16.288736 -1.097875 -10.939609 27.501756 3.798506 -23.487432 -26.167837 -0.037700 1.252900 -3.444900 5.187606 0.188424 6.847615 0.378758 -1.216598 10.019463 21.912599 -12.027440 1.931670 4.321000 -5.984800 1.429500 -109.922868 -36.968787 93.175229 39.378151 -40.120183 -27.948336 3.652677 -6.447574 -28.504390 -7.125000 0.000000 0.000000 71.201882 41.765577 17.355167 -22.325941 30.705048 -8.461538 -2.106958 3.929453 -68.776150 7.125000 0.000000 0.000000 
7.559185 17.758517 -3.366551 5.350546 -38.331191 0.604932 -21.729124 -12.949125 -5.026250 -0.747694 9.200172 24.255100 -4.812913 19.760793 -11.598254 0.235200 -3.121400 -8.616800 17.685372 9.771938 -16.416935 -1.169789 -11.066546 27.961760 3.634651 -23.185195 -26.819713 -0.019000 0.889800 -2.445700 5.258406 -0.034261 6.865883 0.399358 -1.425503 10.161325 22.144880 -12.117591 1.877294 4.413000 -6.039200 1.407300 -112.582766 -40.041571 96.899540 35.724900 -37.223778 -23.882324 3.541653 -6.773462 -30.182835 -7.125000 0.000000 0.000000 68.516274 43.527384 12.953727 -20.602620 28.413672 -7.157358 -1.883945 3.993760 -66.596369 7.125000 0.000000 0.000000 
7.449079 17.764933 -3.431171 5.686406 -37.836999 0.417970 -22.407583 -12.540158 -5.851031 -0.653188 9.515723 24.908073 -4.619065 19.184482 -11.246271 0.279300 -3.399000 -9.391600 17.794808 9.410945 -16.572579 -1.250673 -11.195622 28.438859 3.480008 -22.865337 -27.330101 -0.009900 0.642200 -1.764700 5.323620 -0.243768 6.883596 0.432159 -1.625640 10.313065 22.310239 -12.176049 1.790188 4.459900 -6.085100 1.353800 -115.327197 -42.879374 100.871254 32.542951 -34.314825 -20.383314 3.415509 -7.107137 -31.501773 -7.125000 0.000000 0.000000 65.864939 45.101614 8.630124 -19.147151 26.287510 -6.104208 -1.624326 4.048662 -64.329614 7.125000 0.000000 0.000000 
7.342983 17.768714 -3.490750 6.010385 -37.409107 0.232021 -23.167782 -12.188990 -6.672282 -0.550085 9.838902 25.586666 -4.306864 18.189909 -10.646413 0.354500 -3.825100 -10.585100 17.896619 9.045387 -16.744624 -1.335831 -11.325988 28.918049 3.353799 -22.595608 -27.712291 -0.006900 0.536200 -1.473300 5.384185 -0.434124 6.899880 0.484798 -1.812847 10.472922 22.448707 -12.202153 1.701996 4.497500 -6.116000 1.293700 -118.126772 -45.472046 105.077219 29.801008 -31.444806 -17.416951 3.248679 -7.434925 -32.388590 -7.125000 0.000000 0.000000 63.310877 46.501762 4.428768 -17.908305 24.335003 -5.255172 -1.338532 4.086476 -61.998419 7.125000 0.000000 0.000000 
7.240438 17.769974 -3.545287 6.262295 -37.064483 0.094606 -23.943706 -11.929598 -7.476002 -0.441834 10.163427 26.279514 -3.925450 16.942281 -9.943289 0.454600 -4.325400 -11.994000 18.050050 8.743704 -16.918805 -1.416562 -11.456837 29.376075 3.249893 -22.385442 -28.042568 -0.006300 0.510500 -1.402900 5.430721 -0.591307 6.908765 0.488384 -1.961528 10.635551 22.561994 -12.205925 1.618393 4.522000 -6.136900 1.224600 -120.890456 -47.776896 109.458234 27.467989 -28.708982 -14.961345 3.020321 -7.736516 -32.877536 -7.125000 0.000000 0.000000 60.966555 47.731889 0.301330 -16.833968 22.547663 -4.564159 -1.032443 4.096733 -59.595407 7.125000 0.000000 0.000000 
7.140987 17.769172 -3.594669 6.419545 -36.804318 0.017007 -24.698551 -11.782866 -8.247703 -0.331754 10.486304 26.979355 -3.533932 15.648357 -9.305555 0.565700 -4.817100 -13.387500 18.284237 8.518052 -17.075780 -1.487220 -11.581708 29.789469 3.168719 -22.243548 -28.339613 -0.006900 0.534800 -1.469700 5.472798 -0.731649 6.916461 0.494872 -2.091004 10.815071 22.630225 -12.168678 1.557986 4.530600 -6.135200 1.158600 -123.536769 -49.791132 113.759642 25.513369 -26.199277 -12.968008 2.736525 -7.999202 -33.055614 -7.125000 0.000000 0.000000 58.828112 48.880425 -3.753140 -15.888168 20.916294 -4.000185 -0.730492 4.075773 -57.140986 7.125000 0.000000 0.000000 
